<svg xmlns="http://www.w3.org/2000/svg" id="Capa_1" viewBox="0 0 23.4 23.4"><style>.st0{fill:#D8D36F;}</style><path d="M14.6 15.2c.4-.7 1.1-1.1 1.9-1.1.9 0 1.3-.4 1.3-1.3s.4-1.5 1.1-1.9c.7-.4.9-1 .5-1.8-.4-.7-.4-1.5 0-2.2.4-.7.3-1.3-.5-1.8-.7-.4-1.1-1.1-1.1-1.9 0-.9-.4-1.3-1.3-1.3S15 1.5 14.6.8c-.4-.7-1-.9-1.8-.5-.7.4-1.5.4-2.2 0-.8-.5-1.4-.3-1.8.4-.4.7-1.1 1.1-1.9 1.1-.9 0-1.3.5-1.3 1.3 0 .9-.4 1.5-1.1 1.9-.8.5-.9 1.1-.5 1.8S4.4 8.3 4 9c-.4.7-.3 1.3.5 1.8.7.4 1.1 1.1 1.1 1.9 0 .9.4 1.3 1.3 1.3s1.5.4 1.9 1.1c.4.7 1 .9 1.8.5.7-.4 1.5-.4 2.2 0 .8.5 1.3.3 1.8-.4zm-2.9-2.6C9.1 12.6 7 10.5 7 7.9s2.1-4.7 4.7-4.7 4.7 2.1 4.7 4.7-2.1 4.7-4.7 4.7z" class="st0"/><path d="M6.8 14.7c-.9 0-1-.4-1-.4l-3.5 6.9 2.8-.3 1.6 2.3s3.2-6.8 3.2-6.7c-1.7 0-1-1.7-3.1-1.8zM17.6 14.6c-2.6.3-2 .9-2.6 1.4-.7.7-1.5.6-1.5.6l4 6.8 1-2.5 2.8.4-3.7-6.7zM12.7 6.6l-1-2-1 2-2.2.3 1.6 1.6-.4 2.2 2-1.1 2 1.1-.4-2.2 1.6-1.6z" class="st0"/></svg>