<?xml version="1.0" encoding="UTF-8"?>
<svg width="26px" height="18px" viewBox="0 0 26 18" version="1.1" xmlns="http://www.w3.org/2000/svg" xmlns:xlink="http://www.w3.org/1999/xlink">
    <!-- Generator: Sketch 40.2 (33826) - http://www.bohemiancoding.com/sketch -->
    <title>code</title>
    <desc>Created with Sketch.</desc>
    <defs></defs>
    <g id="Page-1" stroke="none" stroke-width="1" fill="none" fill-rule="evenodd">
        <path d="M15.5838117,16.497 C14.8238117,15.738 14.7968117,14.478 15.5558117,13.718 L19.9878117,9.286 C20.4038117,8.871 20.4038117,8.197 19.9878117,7.781 L15.5558117,3.349 C14.7968117,2.589 14.8238117,1.33 15.5838117,0.57 C16.3438117,-0.19 17.5748117,-0.19 18.3348117,0.57 L25.5458117,7.781 C25.9618117,8.197 25.9618117,8.871 25.5458117,9.286 L18.3348117,16.497 C17.5748117,17.257 16.3438117,17.257 15.5838117,16.497 Z M10.4378117,16.497 C11.1978117,15.738 11.2258117,14.478 10.4658117,13.718 L6.03381166,9.286 C5.61781166,8.871 5.61781166,8.197 6.03381166,7.781 L10.4658117,3.349 C11.2258117,2.589 11.1978117,1.33 10.4378117,0.57 C9.67781166,-0.19 8.44681166,-0.19 7.68681166,0.57 L0.475811658,7.781 C0.0598116584,8.197 0.0598116584,8.871 0.475811658,9.286 L7.68681166,16.497 C8.44681166,17.257 9.67781166,17.257 10.4378117,16.497 Z" id="code" fill="#FFFFFF"></path>
    </g>
</svg>