<?xml version="1.0" encoding="UTF-8"?>
<svg width="202px" height="127px" viewBox="0 0 202 127" version="1.1" xmlns="http://www.w3.org/2000/svg" xmlns:xlink="http://www.w3.org/1999/xlink">
    <!-- Generator: Sketch 45.1 (43504) - http://www.bohemiancoding.com/sketch -->
    <title>Artboard</title>
    <desc>Created with Sketch.</desc>
    <defs></defs>
    <g id="Page-1" stroke="none" stroke-width="1" fill="none" fill-rule="evenodd">
        <g id="Artboard">
            <g id="Group" transform="translate(-4.000000, -1.000000)">
                <rect id="Rectangle-path" fill="#E8ECF7" fill-rule="nonzero" x="0.803102889" y="0" width="206.49145" height="128.908691"></rect>
                <rect id="Rectangle-path" fill="#3A4250" fill-rule="nonzero" x="1" y="97" width="206.49145" height="31.9954208"></rect>
                <path d="M195.256338,115.135761 L36.5678803,115.135761 C35.1478425,115.135761 34,113.987918 34,112.56788 C34,111.147842 35.1478425,110 36.5678803,110 L195.256338,110 C196.676376,110 197.824219,111.147842 197.824219,112.56788 C197.824219,113.987918 196.676376,115.135761 195.256338,115.135761 Z" id="Shape" fill="#2A303D" fill-rule="nonzero"></path>
                <path d="M69.5712891,110 L36.5678803,110 C35.1478425,110 34,111.147842 34,112.56788 C34,113.987918 35.1478425,115.135761 36.5678803,115.135761 L69.5712891,115.135761 L69.5712891,110 Z" id="Shape" fill="#C3002F" fill-rule="nonzero"></path>
                <path d="M69.5678803,123.543042 C68.1478425,123.543042 67,122.3952 67,120.975162 L67,105.56788 C67,104.147842 68.1478425,103 69.5678803,103 C70.9879181,103 72.1357606,104.147842 72.1357606,105.56788 L72.1357606,120.975162 C72.1357606,122.3952 70.9879181,123.543042 69.5678803,123.543042 Z" id="Shape" fill="#FFFFFF" fill-rule="nonzero"></path>
                <g id="angular" transform="translate(70.000000, 10.000000)" fill-rule="nonzero">
                    <polyline id="Shape" fill="#DD0031" points="33.7823535 0 0.144523438 11.9954453 5.27510547 56.4725332 33.7823535 72.2617187 62.2896016 56.4725332 67.4201836 11.9954453"></polyline>
                    <polyline id="Shape" fill="#C3002F" points="33.7823535 0 33.7823535 8.02105078 33.7823535 7.98491992 33.7823535 72.2617187 62.2896016 56.4725332 67.4201836 11.9954453"></polyline>
                    <path d="M33.7823535,7.98491992 L12.7541934,55.1356914 L20.5945898,55.1356914 L24.8219004,44.5854805 L42.6705449,44.5854805 L46.8978555,55.1356914 L54.738252,55.1356914 L33.7823535,7.98491992 Z M39.9245996,38.0819258 L27.6401074,38.0819258 L33.7823535,23.3044043 L39.9245996,38.0819258 Z" id="Shape" fill="#FFFFFF"></path>
                </g>
                <g id="ic_play_arrow_white_24px" transform="translate(7.246094, 100.736816)">
                    <polygon id="Shape" fill="#FFFFFF" fill-rule="nonzero" points="7.65219955 4.78262472 7.65219955 18.1739739 18.1739739 11.4782993"></polygon>
                    <polygon id="Shape" points="0 0 22.9565987 0 22.9565987 22.9565987 0 22.9565987"></polygon>
                </g>
            </g>
        </g>
    </g>
</svg>