<?xml version="1.0" encoding="UTF-8" ?>
<!DOCTYPE svg PUBLIC "-//W3C//DTD SVG 1.1//EN" "http://www.w3.org/Graphics/SVG/1.1/DTD/svg11.dtd">
<svg width="722pt" height="722pt" viewBox="0 0 722 722" version="1.1" xmlns="http://www.w3.org/2000/svg">
    <g id="#000000ff">
        <path d=" M 137.34 108.44 C 142.19 107.73 147.11 108.02 152.00 108.00 C 288.33 108.00 424.67 108.00 561.00 108.00 C 568.32 108.04 575.94 107.35 582.91 110.10 C 596.54 114.86 607.10 128.32 607.02 142.97 C 606.98 282.98 607.01 422.99 607.00 563.00 C 606.93 569.77 607.61 576.79 605.29 583.30 C 601.69 594.29 592.38 603.00 581.40 606.42 C 575.15 608.51 568.48 607.97 562.00 608.00 C 422.32 608.00 282.64 607.99 142.95 608.00 C 124.27 608.26 106.88 591.96 107.02 573.06 C 106.97 429.70 107.03 286.34 106.98 142.97 C 106.87 126.06 120.87 111.01 137.34 108.44 M 210.30 177.10 C 190.11 180.39 174.40 199.72 174.60 220.03 C 175.01 231.28 179.23 242.66 187.46 250.54 C 194.40 257.81 204.11 261.89 213.95 263.27 C 229.00 264.72 244.63 257.72 253.37 245.34 C 261.21 234.84 263.53 220.68 260.12 208.10 C 257.10 197.77 250.39 188.42 241.09 182.89 C 232.06 177.08 220.81 175.17 210.30 177.10 M 419.55 292.40 C 400.39 297.78 382.75 310.23 373.36 328.05 C 373.21 316.97 373.71 305.88 373.16 294.82 C 365.45 294.32 357.72 294.76 350.00 294.62 C 333.92 294.76 317.83 294.34 301.76 294.81 C 301.32 298.86 301.46 302.93 301.50 307.00 C 301.50 368.67 301.50 430.33 301.50 492.00 C 301.66 506.09 301.17 520.20 301.73 534.27 C 311.80 534.84 321.91 534.33 332.00 534.50 C 346.73 534.33 361.48 534.84 376.19 534.27 C 376.66 523.19 376.24 512.09 376.38 501.00 C 376.39 470.33 376.37 439.65 376.39 408.97 C 376.91 396.12 378.57 382.65 385.62 371.55 C 390.87 362.64 400.84 357.54 410.79 355.89 C 421.56 354.61 433.46 354.76 442.60 361.41 C 452.04 368.28 455.85 380.18 457.31 391.28 C 457.58 399.20 458.86 407.06 458.51 415.00 C 458.48 439.33 458.51 463.67 458.50 488.00 C 458.66 503.42 458.17 518.87 458.73 534.27 C 468.47 534.84 478.24 534.33 488.00 534.50 C 503.09 534.34 518.20 534.83 533.27 534.27 C 533.83 517.20 533.34 500.09 533.50 483.00 C 533.47 450.66 533.59 418.31 533.41 385.97 C 532.69 378.42 532.39 370.81 530.98 363.35 C 528.47 345.66 522.91 327.70 511.19 313.86 C 500.43 301.35 484.72 293.93 468.65 291.11 C 458.61 288.76 448.25 289.50 438.03 289.38 C 431.74 289.32 425.54 290.57 419.55 292.40 M 180.83 294.82 C 180.31 313.20 180.77 331.61 180.62 350.00 C 180.62 395.00 180.62 440.00 180.62 485.00 C 180.76 501.42 180.35 517.86 180.81 534.27 C 187.85 534.85 194.94 534.34 202.00 534.50 C 219.78 534.35 237.59 534.80 255.36 534.29 C 256.00 527.22 255.45 520.09 255.62 513.00 C 255.62 444.33 255.62 375.67 255.62 307.00 C 255.65 302.94 255.84 298.85 255.30 294.81 C 247.54 294.34 239.77 294.75 232.00 294.62 C 214.95 294.77 197.88 294.33 180.83 294.82 Z"/>
    </g>
    <g id="#ffffffff">
    </g>
</svg>
