<svg viewBox="0 0 378 400" xmlns="http://www.w3.org/2000/svg" width="378" height="400"><g fill="none" fill-rule="evenodd"><path fill="#B2B2B2" d="M188 0L0 66.2l29.7 246.2 158.5 87 159.3-88L377.2 65"/><path fill="#B52E31" d="M358.4 79.2L187.4 21v357.7l143.3-79.2"/><path fill="#E23237" d="M21 80.3l25.6 220.2 141 78.2V21"/><path fill="#F2F2F2" d="M227.2 199L188 116.7l-34.7 82h74zm15 34.4H138l-23.3 58.3-43.4.8L187.5 34l120.3 258.5h-40.2l-25.5-59z"/><path fill="#B2B2B2" d="M187.5 34l.4 82.8 39 82.2h-39.4v34.4H242l25.6 59 41.5 1"/></g></svg>