<?xml version="1.0" encoding="utf-8"?>
<!-- Generator: Adobe Illustrator 16.0.0, SVG Export Plug-In . SVG Version: 6.00 Build 0)  -->
<!DOCTYPE svg PUBLIC "-//W3C//DTD SVG 1.1//EN" "http://www.w3.org/Graphics/SVG/1.1/DTD/svg11.dtd">
<svg version="1.1"
	 id="svg2" sodipodi:docname="htmlcss.svg" inkscape:version="0.48.3.1 r9886" xmlns:dc="http://purl.org/dc/elements/1.1/" xmlns:cc="http://creativecommons.org/ns#" xmlns:rdf="http://www.w3.org/1999/02/22-rdf-syntax-ns#" xmlns:svg="http://www.w3.org/2000/svg" xmlns:sodipodi="http://sodipodi.sourceforge.net/DTD/sodipodi-0.dtd" xmlns:inkscape="http://www.inkscape.org/namespaces/inkscape"
	 xmlns="http://www.w3.org/2000/svg" xmlns:xlink="http://www.w3.org/1999/xlink" x="0px" y="0px" width="362.734px"
	 height="411.38px" viewBox="428.571 100.62 362.734 411.38" enable-background="new 428.571 100.62 362.734 411.38"
	 xml:space="preserve">
<sodipodi:namedview  inkscape:window-maximized="1" inkscape:window-y="31" inkscape:window-x="0" inkscape:window-height="938" inkscape:window-width="1280" fit-margin-bottom="0" inkscape:current-layer="layer1" inkscape:document-units="px" inkscape:pageopacity="0.0" fit-margin-right="0" inkscape:pageshadow="2" fit-margin-left="0" fit-margin-top="0" showgrid="false" inkscape:cy="244.10462" inkscape:cx="-276.49014" inkscape:zoom="0.35" borderopacity="1.0" bordercolor="#666666" pagecolor="#ffffff" id="base">
	</sodipodi:namedview>
<g id="layer1" transform="translate(-170.06157,-270.18109)" inkscape:label="Calque 1" inkscape:groupmode="layer">
	<g id="g3054" transform="translate(524,270.18109)">
		<polygon id="polygon3028" fill="#E44D26" points="437.367,100.62 404.322,470.819 255.779,512 107.644,470.877 74.632,100.62 		
			"/>
		<polygon id="polygon3030" fill="#F16529" points="256,480.523 376.031,447.246 404.269,130.894 256,130.894 		"/>
		<polygon id="polygon3032" fill="#EBEBEB" points="191.759,221.716 256,221.716 256,176.305 255.843,176.305 142.132,176.305 
			143.218,188.488 154.38,313.627 256,313.627 256,268.217 195.91,268.217 		"/>
		<polygon id="polygon3034" fill="#EBEBEB" points="201.994,336.333 177.419,336.333 156.41,336.333 162.771,407.634 
			255.791,433.457 256,433.399 256,386.153 255.8,386.206 205.226,372.55 		"/>
		<polygon id="polygon3044" fill="#FFFFFF" points="255.843,313.627 311.761,313.627 306.49,372.521 255.843,386.191 
			255.843,433.435 348.937,407.634 349.621,399.962 360.291,280.411 361.4,268.217 349.162,268.217 255.843,268.217 		"/>
		<polygon id="polygon3046" fill="#FFFFFF" points="255.843,221.605 255.843,221.716 365.384,221.716 365.384,221.716 
			365.531,221.716 366.443,211.509 368.511,188.488 369.597,176.305 255.843,176.305 255.843,204.509 		"/>
	</g>
</g>
</svg>
